<svg width="24" height="24" viewBox="0 0 24 24" fill="none" xmlns="http://www.w3.org/2000/svg">
<path d="M12 0.333313C15.1699 0.333313 15.5654 0.34498 16.809 0.403313C18.0515 0.461646 18.8974 0.65648 19.6417 0.945813C20.4117 1.24215 21.0604 1.64348 21.709 2.29098C22.3023 2.87419 22.7613 3.57967 23.0542 4.35831C23.3424 5.10148 23.5384 5.94848 23.5967 7.19098C23.6515 8.43465 23.6667 8.83015 23.6667 12C23.6667 15.1698 23.655 15.5653 23.5967 16.809C23.5384 18.0515 23.3424 18.8973 23.0542 19.6416C22.7622 20.4207 22.303 21.1264 21.709 21.709C21.1257 22.302 20.4202 22.761 19.6417 23.0541C18.8985 23.3423 18.0515 23.5383 16.809 23.5966C15.5654 23.6515 15.1699 23.6666 12 23.6666C8.83021 23.6666 8.43471 23.655 7.19104 23.5966C5.94854 23.5383 5.10271 23.3423 4.35837 23.0541C3.57942 22.7619 2.87382 22.3027 2.29104 21.709C1.69768 21.1259 1.23863 20.4204 0.945874 19.6416C0.656541 18.8985 0.461707 18.0515 0.403374 16.809C0.348541 15.5653 0.333374 15.1698 0.333374 12C0.333374 8.83015 0.345041 8.43465 0.403374 7.19098C0.461707 5.94731 0.656541 5.10265 0.945874 4.35831C1.23782 3.57919 1.69698 2.87352 2.29104 2.29098C2.87399 1.69742 3.57954 1.23833 4.35837 0.945813C5.10271 0.65648 5.94737 0.461646 7.19104 0.403313C8.43471 0.34848 8.83021 0.333313 12 0.333313ZM12 6.16665C10.4529 6.16665 8.96921 6.78123 7.87525 7.87519C6.78129 8.96915 6.16671 10.4529 6.16671 12C6.16671 13.5471 6.78129 15.0308 7.87525 16.1248C8.96921 17.2187 10.4529 17.8333 12 17.8333C13.5471 17.8333 15.0309 17.2187 16.1248 16.1248C17.2188 15.0308 17.8334 13.5471 17.8334 12C17.8334 10.4529 17.2188 8.96915 16.1248 7.87519C15.0309 6.78123 13.5471 6.16665 12 6.16665ZM19.5834 5.87498C19.5834 5.48821 19.4297 5.11727 19.1562 4.84378C18.8827 4.57029 18.5118 4.41665 18.125 4.41665C17.7383 4.41665 17.3673 4.57029 17.0938 4.84378C16.8204 5.11727 16.6667 5.48821 16.6667 5.87498C16.6667 6.26175 16.8204 6.63269 17.0938 6.90618C17.3673 7.17967 17.7383 7.33331 18.125 7.33331C18.5118 7.33331 18.8827 7.17967 19.1562 6.90618C19.4297 6.63269 19.5834 6.26175 19.5834 5.87498ZM12 8.49998C12.9283 8.49998 13.8185 8.86873 14.4749 9.52511C15.1313 10.1815 15.5 11.0717 15.5 12C15.5 12.9282 15.1313 13.8185 14.4749 14.4749C13.8185 15.1312 12.9283 15.5 12 15.5C11.0718 15.5 10.1815 15.1312 9.52517 14.4749C8.86879 13.8185 8.50004 12.9282 8.50004 12C8.50004 11.0717 8.86879 10.1815 9.52517 9.52511C10.1815 8.86873 11.0718 8.49998 12 8.49998Z" fill="#131212"/>
</svg>
