<svg width="24" height="20" viewBox="0 0 24 20" fill="none" xmlns="http://www.w3.org/2000/svg">
<path d="M23.8557 2.59864C22.965 2.99262 22.0205 3.25136 21.0534 3.36631C22.0728 2.75665 22.8357 1.79716 23.2001 0.666642C22.2434 1.23598 21.1946 1.63498 20.1014 1.85081C19.3671 1.06515 18.3938 0.544099 17.3328 0.368658C16.2719 0.193216 15.1827 0.373215 14.2345 0.880671C13.2864 1.38813 12.5325 2.19461 12.09 3.17473C11.6475 4.15486 11.5413 5.25372 11.7877 6.30048C9.84769 6.20324 7.94978 5.69909 6.21723 4.82075C4.48468 3.94241 2.95621 2.70953 1.73106 1.20214C1.2974 1.947 1.06951 2.79374 1.07073 3.65564C1.07073 5.34731 1.93173 6.84181 3.24073 7.71681C2.46607 7.69242 1.70847 7.48322 1.03106 7.10664V7.16731C1.0313 8.29396 1.42116 9.38586 2.13455 10.2579C2.84794 11.1299 3.84096 11.7284 4.94523 11.9518C4.22611 12.1467 3.47209 12.1754 2.74023 12.0358C3.05157 13.0056 3.6584 13.8537 4.47575 14.4614C5.2931 15.0692 6.28004 15.4061 7.29839 15.425C6.28629 16.2199 5.12743 16.8075 3.88809 17.1542C2.64874 17.5009 1.35321 17.5999 0.0755615 17.4456C2.30588 18.88 4.90217 19.6415 7.55389 19.639C16.5291 19.639 21.4372 12.2038 21.4372 5.75564C21.4372 5.54564 21.4314 5.33331 21.4221 5.12564C22.3774 4.43517 23.2019 3.57983 23.8569 2.59981L23.8557 2.59864Z" fill="#131212"/>
</svg>
